<svg width="220" height="72" viewBox="0 0 220 72" fill="none" xmlns="http://www.w3.org/2000/svg">
<ellipse cx="35" cy="35.5" rx="35" ry="34.5" fill="white"/>
<path d="M70.4368 35.5637C70.4368 32.2537 69.7849 28.9761 68.5182 25.918C67.2515 22.86 65.3949 20.0814 63.0543 17.7408C60.7138 15.4003 57.9352 13.5437 54.8771 12.277C51.8191 11.0103 48.5415 10.3584 45.2315 10.3584C41.9215 10.3584 38.6439 11.0103 35.5858 12.277C32.5277 13.5437 29.7491 15.4003 27.4086 17.7408C25.0681 20.0814 23.2115 22.86 21.9448 25.918C20.6781 28.9761 20.0261 32.2537 20.0261 35.5637H26.7808C26.7808 33.1407 27.258 30.7415 28.1853 28.503C29.1125 26.2644 30.4716 24.2304 32.1849 22.5171C33.8982 20.8038 35.9322 19.4447 38.1707 18.5175C40.4092 17.5903 42.8085 17.113 45.2315 17.113C47.6544 17.113 50.0537 17.5903 52.2922 18.5175C54.5308 19.4447 56.5648 20.8038 58.2781 22.5171C59.9914 24.2304 61.3504 26.2644 62.2777 28.5029C63.2049 30.7415 63.6821 33.1407 63.6821 35.5637H70.4368Z" fill="#F6AE9F"/>
<path d="M70.4369 35.5637C70.4369 33.4326 70.0171 31.3224 69.2016 29.3535C68.386 27.3846 67.1907 25.5957 65.6838 24.0887C64.1768 22.5818 62.3879 21.3865 60.419 20.5709C58.4501 19.7554 56.3399 19.3356 54.2088 19.3356C52.0776 19.3356 49.9674 19.7554 47.9985 20.5709C46.0296 21.3865 44.2407 22.5818 42.7338 24.0887C41.2268 25.5957 40.0315 27.3846 39.2159 29.3535C38.4004 31.3224 37.9807 33.4326 37.9807 35.5637H42.3296C42.3296 34.0037 42.6368 32.459 43.2338 31.0178C43.8308 29.5765 44.7058 28.267 45.8089 27.1639C46.912 26.0608 48.2215 25.1858 49.6628 24.5888C51.104 23.9918 52.6488 23.6845 54.2088 23.6845C55.7687 23.6845 57.3135 23.9918 58.7547 24.5888C60.196 25.1858 61.5055 26.0608 62.6086 27.1639C63.7117 28.267 64.5867 29.5765 65.1837 31.0178C65.7807 32.459 66.088 34.0037 66.088 35.5637H70.4369Z" fill="#F6AE9F"/>
<path d="M70.4369 35.909C70.4369 31.2841 69.5259 26.7044 67.756 22.4315C65.9861 18.1586 63.392 14.2762 60.1216 11.0059C56.8513 7.73552 52.9688 5.14135 48.6959 3.37146C44.423 1.60156 39.8434 0.690613 35.2184 0.690613C30.5935 0.690613 26.0138 1.60156 21.7409 3.37146C17.468 5.14135 13.5856 7.73552 10.3152 11.0059C7.0449 14.2762 4.45073 18.1586 2.68084 22.4315C0.910951 26.7044 -4.04326e-07 31.2841 0 35.909H9.43804C9.43804 32.5235 10.1049 29.1711 11.4005 26.0433C12.696 22.9155 14.595 20.0735 16.9889 17.6796C19.3829 15.2856 22.2249 13.3867 25.3527 12.0911C28.4805 10.7955 31.8329 10.1286 35.2184 10.1286C38.604 10.1286 41.9563 10.7955 45.0842 12.0911C48.212 13.3867 51.054 15.2856 53.4479 17.6796C55.8419 20.0735 57.7408 22.9155 59.0364 26.0433C60.332 29.1711 60.9988 32.5235 60.9988 35.909H70.4369Z" fill="#F6AE9F"/>
<path d="M7.62939e-06 35.5246C7.62939e-06 38.8346 0.651962 42.1122 1.91865 45.1702C3.18534 48.2283 5.04195 51.0069 7.38248 53.3474C9.72302 55.688 12.5016 57.5446 15.5597 58.8113C18.6177 60.078 21.8953 60.7299 25.2054 60.7299C28.5154 60.7299 31.793 60.078 34.851 58.8113C37.9091 57.5446 40.6877 55.688 43.0282 53.3474C45.3688 51.0069 47.2254 48.2283 48.4921 45.1702C49.7588 42.1122 50.4107 38.8346 50.4107 35.5246H43.656C43.656 37.9475 43.1788 40.3468 42.2516 42.5853C41.3243 44.8239 39.9653 46.8579 38.252 48.5712C36.5387 50.2845 34.5047 51.6435 32.2661 52.5708C30.0276 53.498 27.6283 53.9752 25.2054 53.9752C22.7824 53.9752 20.3831 53.498 18.1446 52.5708C15.9061 51.6435 13.8721 50.2845 12.1588 48.5712C10.4455 46.8579 9.08639 44.8239 8.15915 42.5853C7.23192 40.3468 6.75468 37.9475 6.75468 35.5246L7.62939e-06 35.5246Z" fill="#F6AE9F"/>
<path d="M0.000160217 35.4895C0.000160217 37.6206 0.419914 39.7308 1.23545 41.6997C2.05099 43.6686 3.24634 45.4576 4.75326 46.9645C6.26018 48.4714 8.04915 49.6668 10.018 50.4823C11.9869 51.2978 14.0972 51.7176 16.2283 51.7176C18.3594 51.7176 20.4696 51.2978 22.4385 50.4823C24.4074 49.6668 26.1963 48.4714 27.7033 46.9645C29.2102 45.4576 30.4055 43.6686 31.2211 41.6997C32.0366 39.7308 32.4564 37.6206 32.4564 35.4895H28.1075C28.1075 37.0495 27.8002 38.5942 27.2032 40.0355C26.6062 41.4767 25.7312 42.7863 24.6281 43.8894C23.525 44.9924 22.2155 45.8675 20.7742 46.4644C19.333 47.0614 17.7883 47.3687 16.2283 47.3687C14.6683 47.3687 13.1235 47.0614 11.6823 46.4644C10.241 45.8675 8.93148 44.9924 7.8284 43.8894C6.72531 42.7863 5.8503 41.4767 5.25331 40.0355C4.65632 38.5942 4.34906 37.0495 4.34906 35.4895L0.000160217 35.4895Z" fill="#F6AE9F"/>
<path d="M0.00125122 35.2185C0.00125122 39.8434 0.912201 44.4231 2.6821 48.696C4.45199 52.9689 7.04616 56.8513 10.3165 60.1217C13.5868 63.392 17.4693 65.9862 21.7422 67.7561C26.0151 69.526 30.5947 70.4369 35.2197 70.4369C39.8446 70.4369 44.4243 69.526 48.6972 67.7561C52.9701 65.9862 56.8525 63.392 60.1229 60.1217C63.3932 56.8513 65.9874 52.9689 67.7573 48.696C69.5272 44.4231 70.4381 39.8434 70.4381 35.2185H61.0001C61.0001 38.604 60.3332 41.9564 59.0377 45.0842C57.7421 48.212 55.8431 51.054 53.4492 53.448C51.0552 55.8419 48.2132 57.7409 45.0854 59.0365C41.9576 60.3321 38.6052 60.9989 35.2197 60.9989C31.8342 60.9989 28.4818 60.3321 25.354 59.0365C22.2261 57.7409 19.3841 55.8419 16.9902 53.448C14.5963 51.0541 12.6973 48.212 11.4017 45.0842C10.1061 41.9564 9.43929 38.604 9.43929 35.2185H0.00125122Z" fill="#F6AE9F"/>
<path d="M84.5618 18.3665L83.0324 19.2728C82.7464 18.7765 82.474 18.4528 82.215 18.3018C81.9453 18.1291 81.5973 18.0428 81.1711 18.0428C80.6478 18.0428 80.2135 18.1912 79.8682 18.4879C79.5229 18.7792 79.3503 19.1461 79.3503 19.5885C79.3503 20.1981 79.8035 20.689 80.7098 21.0613L81.9561 21.5711C82.9703 21.9811 83.7121 22.4829 84.1815 23.0763C84.6509 23.6644 84.8855 24.3873 84.8855 25.2451C84.8855 26.3942 84.5025 27.3437 83.7364 28.0936C82.9649 28.8489 82.0073 29.2266 80.8636 29.2266C79.7792 29.2266 78.8836 28.9056 78.1769 28.2636C77.4809 27.6216 77.0466 26.7179 76.874 25.5526L78.7838 25.1318C78.8701 25.8655 79.0212 26.3726 79.237 26.6532C79.6254 27.1927 80.1919 27.4624 80.9364 27.4624C81.5245 27.4624 82.0127 27.2655 82.4011 26.8717C82.7896 26.4778 82.9838 25.9788 82.9838 25.3746C82.9838 25.1318 82.9487 24.9106 82.8786 24.711C82.8139 24.506 82.7087 24.3199 82.563 24.1526C82.4227 23.98 82.2393 23.8208 82.0127 23.6752C81.7861 23.5241 81.5164 23.3811 81.2035 23.2463L79.9977 22.7445C78.2875 22.0216 77.4324 20.9642 77.4324 19.5723C77.4324 18.6335 77.7911 17.8486 78.5087 17.2174C79.2262 16.5808 80.1191 16.2625 81.1873 16.2625C82.6277 16.2625 83.7526 16.9638 84.5618 18.3665ZM94.3699 25.9653H89.0208L87.6289 29H85.5977L91.7803 15.7203L97.7445 29H95.6809L94.3699 25.9653ZM93.6011 24.1931L91.7479 19.9445L89.8058 24.1931H93.6011ZM106.209 18.2775H101.2V21.2798H106.064V23.052H101.2V27.2277H106.209V29H99.3144V16.5052H106.209V18.2775ZM111.21 23.6023L107.132 16.5052H109.301L112.157 21.4983L115.022 16.5052H117.191L113.096 23.6023V29H111.21V23.6023ZM120.525 21.3931H125.914V16.5052H127.8V29H125.914V23.1653H120.525V29H118.639V16.5052H120.525V21.3931ZM138.134 25.9653H132.785L131.393 29H129.362L135.544 15.7203L141.509 29H139.445L138.134 25.9653ZM137.365 24.1931L135.512 19.9445L133.57 24.1931H137.365ZM84.5618 40.3665L83.0324 41.2728C82.7464 40.7765 82.474 40.4528 82.215 40.3018C81.9453 40.1291 81.5973 40.0428 81.1711 40.0428C80.6478 40.0428 80.2135 40.1912 79.8682 40.4879C79.5229 40.7792 79.3503 41.1461 79.3503 41.5885C79.3503 42.1981 79.8035 42.689 80.7098 43.0613L81.9561 43.5711C82.9703 43.9811 83.7121 44.4829 84.1815 45.0763C84.6509 45.6644 84.8855 46.3873 84.8855 47.2451C84.8855 48.3942 84.5025 49.3437 83.7364 50.0936C82.9649 50.8489 82.0073 51.2266 80.8636 51.2266C79.7792 51.2266 78.8836 50.9056 78.1769 50.2636C77.4809 49.6216 77.0466 48.7179 76.874 47.5526L78.7838 47.1318C78.8701 47.8655 79.0212 48.3726 79.237 48.6532C79.6254 49.1927 80.1919 49.4624 80.9364 49.4624C81.5245 49.4624 82.0127 49.2655 82.4011 48.8717C82.7896 48.4778 82.9838 47.9788 82.9838 47.3746C82.9838 47.1318 82.9487 46.9106 82.8786 46.711C82.8139 46.506 82.7087 46.3199 82.563 46.1526C82.4227 45.98 82.2393 45.8208 82.0127 45.6752C81.7861 45.5241 81.5164 45.3811 81.2035 45.2463L79.9977 44.7445C78.2875 44.0216 77.4324 42.9642 77.4324 41.5723C77.4324 40.6335 77.7911 39.8486 78.5087 39.2174C79.2262 38.5808 80.1191 38.2625 81.1873 38.2625C82.6277 38.2625 83.7526 38.9638 84.5618 40.3665ZM86.5364 44.696C86.5364 42.9372 87.1811 41.4266 88.4705 40.1642C89.7545 38.9018 91.2975 38.2705 93.0994 38.2705C94.8797 38.2705 96.4065 38.9072 97.6797 40.1804C98.9583 41.4536 99.5976 42.9831 99.5976 44.7688C99.5976 46.5653 98.9556 48.0894 97.6716 49.341C96.3822 50.5981 94.8258 51.2266 93.0023 51.2266C91.3892 51.2266 89.9406 50.6682 88.6566 49.5514C87.2431 48.316 86.5364 46.6975 86.5364 44.696ZM88.4381 44.7202C88.4381 46.1014 88.9021 47.237 89.83 48.1272C90.7526 49.0173 91.8181 49.4624 93.0266 49.4624C94.3375 49.4624 95.4435 49.0093 96.3445 48.1029C97.2454 47.1857 97.6959 46.069 97.6959 44.7526C97.6959 43.4201 97.2508 42.3033 96.3607 41.4023C95.4759 40.496 94.3807 40.0428 93.0751 40.0428C91.7749 40.0428 90.677 40.496 89.7815 41.4023C88.8859 42.2979 88.4381 43.4039 88.4381 44.7202ZM103.854 38.5052V49.2277H107.528V51H101.969V38.5052H103.854ZM110.814 38.5052V46.0312C110.814 47.1048 110.989 47.8898 111.34 48.3861C111.863 49.1037 112.6 49.4624 113.549 49.4624C114.504 49.4624 115.243 49.1037 115.766 48.3861C116.117 47.906 116.292 47.121 116.292 46.0312V38.5052H118.178V46.5491C118.178 47.8655 117.768 48.9499 116.948 49.8023C116.025 50.7518 114.892 51.2266 113.549 51.2266C112.206 51.2266 111.075 50.7518 110.158 49.8023C109.338 48.9499 108.928 47.8655 108.928 46.5491V38.5052H110.814ZM124.628 40.2775V51H122.742V40.2775H119.869V38.5052H127.492V40.2775H124.628ZM131.061 38.5052V51H129.176V38.5052H131.061ZM133.44 44.696C133.44 42.9372 134.085 41.4266 135.374 40.1642C136.658 38.9018 138.201 38.2705 140.003 38.2705C141.784 38.2705 143.31 38.9072 144.584 40.1804C145.862 41.4536 146.502 42.9831 146.502 44.7688C146.502 46.5653 145.86 48.0894 144.576 49.341C143.286 50.5981 141.73 51.2266 139.906 51.2266C138.293 51.2266 136.845 50.6682 135.561 49.5514C134.147 48.316 133.44 46.6975 133.44 44.696ZM135.342 44.7202C135.342 46.1014 135.806 47.237 136.734 48.1272C137.657 49.0173 138.722 49.4624 139.931 49.4624C141.242 49.4624 142.347 49.0093 143.248 48.1029C144.149 47.1857 144.6 46.069 144.6 44.7526C144.6 43.4201 144.155 42.3033 143.265 41.4023C142.38 40.496 141.285 40.0428 139.979 40.0428C138.679 40.0428 137.581 40.496 136.685 41.4023C135.79 42.2979 135.342 43.4039 135.342 44.7202ZM148.873 51V37.6555L157.985 47.1884V38.5052H159.87V51.7607L150.758 42.252V51H148.873ZM169.937 40.3665L168.408 41.2728C168.122 40.7765 167.85 40.4528 167.591 40.3018C167.321 40.1291 166.973 40.0428 166.547 40.0428C166.023 40.0428 165.589 40.1912 165.244 40.4879C164.898 40.7792 164.726 41.1461 164.726 41.5885C164.726 42.1981 165.179 42.689 166.085 43.0613L167.332 43.5711C168.346 43.9811 169.088 44.4829 169.557 45.0763C170.026 45.6644 170.261 46.3873 170.261 47.2451C170.261 48.3942 169.878 49.3437 169.112 50.0936C168.34 50.8489 167.383 51.2266 166.239 51.2266C165.155 51.2266 164.259 50.9056 163.552 50.2636C162.856 49.6216 162.422 48.7179 162.25 47.5526L164.159 47.1318C164.246 47.8655 164.397 48.3726 164.613 48.6532C165.001 49.1927 165.567 49.4624 166.312 49.4624C166.9 49.4624 167.388 49.2655 167.777 48.8717C168.165 48.4778 168.359 47.9788 168.359 47.3746C168.359 47.1318 168.324 46.9106 168.254 46.711C168.189 46.506 168.084 46.3199 167.939 46.1526C167.798 45.98 167.615 45.8208 167.388 45.6752C167.162 45.5241 166.892 45.3811 166.579 45.2463L165.373 44.7445C163.663 44.0216 162.808 42.9642 162.808 41.5723C162.808 40.6335 163.167 39.8486 163.884 39.2174C164.602 38.5808 165.495 38.2625 166.563 38.2625C168.003 38.2625 169.128 38.9638 169.937 40.3665Z" fill="#05203D"/>
</svg>
